<?xml version="1.0" encoding="utf-8"?>
<!-- Generator: Adobe Illustrator 27.1.1, SVG Export Plug-In . SVG Version: 6.00 Build 0)  -->
<svg version="1.1" id="Layer_1" xmlns="http://www.w3.org/2000/svg" xmlns:xlink="http://www.w3.org/1999/xlink" x="0px" y="0px"
	 viewBox="0 0 1000 1000" style="enable-background:new 0 0 1000 1000;" xml:space="preserve">
<style type="text/css">
	.st0{fill:#373737;}
	.st1{fill:#FFFFFF;}
</style>
<g>
	<path d="M791.94,370.07c2.9-11.16-0.26-26.76-9.54-34.05c-14.08-29.51-78.81-4.31-61.42,30.08c3.48,8.22-21.78-9.04-11.87-14.03
		c4.55-5.37-10.17-9.42-2.64-10.09c16.06-4.01-8.27-52.2,5.99-44.63c4,2.08-0.61,3.17-0.96,5.85c-2.42,4.21,9.21,34.45,7.95,21.48
		c0.12-4.71,1.58-8.98-0.28-13.57c-0.49-2.5-6.11-5.04-2.37-7.03c11.18-5.81,7.05,17.51,10.85-0.82
		c-2.34-10.28,11.53-6.29,10.25-24.48c1.66-8.59-11.91-19.37-3.13-20.45c-7.85-8.81-25.82-4.47-34.27,2.88
		c-10.52,7.69-3.66,16.75-13.68,15.96c6.98,16.02,22.19,30.33,19.42,51.14c1.49,8.54-19.77,51.16-25.44,43.33
		c17.29-19.81-17.57,6.63-26.11,5.71c-12.6,1.94-36.74,4.51-43.28-7.45c53.01,18.14,117.81-59.19,50.97-86.71
		c-5.42-3.58-51.75,0.56-28.65-6.81c8.94-1.92,15.76-13.28,25.25-9.7c59.03,18.44-23.04-22.92-35.44,12.54
		c-0.94,4.86-8.57-1.63-12.47,0.02c-4.51,0.05-4.51,0.01-5.54-4.68c6.35,0.35,13.5,0.19,16.95-6.19c2.51-4.32,8.5-0.13,10.73-5.33
		c-2.49-1.22-4.11,1.02-6.54,0.49c-4.65-1.59-6.87-13.04-8.47,0.28c-2.33,11.02-25.15,2.75-14.74-5.13
		c-4-13.92-14.86,8.14-1.49,23.04c-13.1,4.57-5.53,26.33-17.65,4.34c-0.65-3.64-9.38-13.96-1.77-12.16
		c2.37,3.41,13.46,17.03,10.39,5.63c-3.08-3.93-6.05-8.61-5.61-13.83c-2.5-31.58,40.04-9.24,21.61-22.77
		c-5.61-1.45-11.62-0.77-17.18,1.83c9.84-7.64,1.52-34.45-10.32-20.09c15.61-3.44,10.81,20.87-2.19,20.16
		c-7.51,1.6-12.51-2.52-12.63-10.13c-4.5-3.95-6.16-6.59,0.94-9.02c9.14-1.49-1.05,16.04,10.95,15.11
		c11.63-3.39-5.72-11.05,1.73-15.31c-1.87-5.72-7.86,0.95-9.52-5.28c2.19-10.46-6.4-20.99-12.89-28.43
		c-6.3-11.9-29.45-1.32-30.38-8.07c5.31-9.77-9.03-10.42-8.83-17.21c3.65-3.55,19.97-11.9,21.09-3.65
		c-6.67,10.75,20.23,15.21,4.05,6.11c-5.41-2.54,0.44-6.79,3.32-7.65c-3.39-4.42-1.27-2.97,2.8-4.87
		c-7.58-4.65-2.24-12.25,3.49-16.93c-31.02,11.37-3.45,12.56-12.53,17.47c-4.42-2.3-15.28-4.31-16.58,2.16
		c-4.7,8.84-8.35-2.11-0.71-5.9c7.91-7.7,18.42-15.53,11.08-26.42c-10.1,23.63-4.85,8-13.77-3.11c-4.99-5.52-18.36-6.1-21.01,0.88
		c0.4,5.82,0.45,11.98-7.43,11.03c-3.1,2.39-6.46-4.52-7.54-1.24c0.18,1.68-2,3.24,0.05,4.56c2.21-0.04,6.78-3.23,6.9,1.59
		c5.74,3.58,15.75-9.32,9.06-14.86c0.11-6.89,13.24-4.94,13.73,0.28c7.9,6.12,6.3,6.56,5.03,15.45c13.44-6.23-2.22,11.61-7.29,13.61
		c-10.58,6.36,9.93,15.94-2.6,15.98c-2.35-0.07-5.77,1.34-5.13,4.15c2.45,3.76,8.88,1.06,12.33,0.71c6.6-0.93,9.35,8.63,1.42,6.53
		c-12.9-4.23-7.75,6.9-14.75,10.24c-28.77-8.26-15.62,6.64-36.94,1.01c-8.93,1.49-9.05,1.56-10.64-5.02
		c-3.64,1.15-1.67,5.52-4.54,7.24c-1.66,1.17-1.53,3.58,0.63,2.38c7.81,0.13,26.53-3.45,27.73,7.7c-1.75,0.92-11.51-0.69-7.89,3.87
		c3.52,5.12,8.69,4.06,13.2,1.12c14.53,1.88-7.27,11.74-13.37,6.63c-4.29-4.86-3.98-14.83-11.27-16
		c-9.94-2.4-28.91,3.47-25.11,16.18c2.81,2.67,2.97-10.12,10.65-10.16c8.66-4.51,22.09-2.64,19.35,9.87
		c-6.63,6.66-18.86,11.21-27.46,6.76c-1.64,14.68-14.29,3.63-22.25,6.25c-9.51,2.98-5.52,10.4-9.28,16.66
		c-5.31,4.87,1.12,9.97,3.77,13.82c-11.75,10.05,1.75,33.29-22.05,28.26c-10.65,2.1-16.16,10.85-22.09-2.62
		c17.1,2.73,38.97-1.16,36.24-23.41c3.92-5.87-8.17-10.65-13.89-13.17c-4.66,2.47-5.2,3.04-7.91-2.19
		c-3.5,1.87-4.54,17.93-10.08,7.72c5.48-3.65,10.22-21.53,1.49-7.31c-2.89,12.05-8.33,3.98-3.61,11.73
		c-16.97-2.84-37.28-5.15-52.8,4.08c-9.16,5.62-0.37-7.31-1.06-9.71c-2.72,0.42-2.62,6.68-5.95,1.64
		c-10.14-11.25-36.56-3.38-32.54,11.61c0.04,2.04-2.84,0.97-2.99-0.47c-2.64-1.85,1.06,3.59,1.55,4.21c2.2,2.92,0.83,6.8,2.16,9.81
		c-0.4,10.06,2.16,5.72,7.14,1.17c7.59,0.2,15.95-15.68,6.08-4.81c-13.94,6.04-13.84-15.22-4.18-20.01
		c12.96-8.07,25.35,7.21,20.67,19.67c-7.1,12.46,0.81-25.7-19.31-14.44c-8.06,15.72,9.04,0.6,11.3,9.08
		c-32.21,38.45,5.94,79.76-14.41,64.31c-7.74-9.16-10.18-20.28-10.6-31.61c-7.54,2.29-1.06,12.93-6.43,13.98
		c-21.75-1.51-50.14-3.77-60.13,21.15c-5.91,12.89,16.32,2.6,15.12,11.09c-2.59,7.69,4.25,20.16,1.17,25.07
		c-11.35,0.49-9.23-13.77-15.73-18.01c3.83,23.16-22.07-14.92-33.3,20.28c-1.48,3.22,0.34,15.23,3.14,14.76
		c-5.23-15.3,11.15-32.67,26.58-25.47c21.37,13.51-8.02,30.19,27.62,33.7c-3.05,2.07-7.31,7.38-9.51,8.06
		c-5.42-4-16.58-1.68-17.35-9.67c6.5-7.42-1.46-4.15-6.04-2.22c-1.79,7.76,11.5,8.61,15.75,13.26c8.46,9.79,18.07,12.54,30.98,12.66
		c7.32,0.1,15.08-1.01,21.3-4.79c10.45,3.73,8.59,5.98,23.76,1.14c8.38,7.29-17.77,8.66-23.46,8.75
		c-25.39,10.42-61.8-0.94-73.89-26.57c-5.91-10.57,14.85-16.66,7.44-25.98c-38.87-5.64-3.65,54.03,19.9,53.37
		c9.8,5.23-6.5,4.77-6.43,7.72c-11.68,15.43-33.85,26.47-35.5,49.34c-6.23,20.18,8.17-15.07,13.09-21.8
		c17.7-22.06,37.92-24.27,10.01,3.02c-29.43,28.64-1.95,61.84,8.76,90.82c-2.12,3.47-16.84,3.65-17.96-0.29
		c0.44-4.93-2.11-9.1-2.94-13.71c-2.87-8.43-4.76-23.25-8.87-28.68c-5.6,13.48,19.31,44.92,4.56,49.62
		c-4.53,6.63,25.29-8.79,26.98,1.01c2.32,8.91-10.16,12.11-14.63,5.53c-17.64,16.5,27.96,18.66,21.38-11.27
		c5.83-7.64,16.47,28.59-13.31,29.29c-7.94,0.72-16-0.22-22.83-3.64c3.11,10.01,24.13,10.31,32.85,5.68
		c8.65-2.8,15.38-9.04,15.9-17.86c1.64,4.28,26.66,21.85,18.97,23.23c-17.42-20.24-45.1,3.99-50.13,21.38
		c-3.64,9.16,4.57,10.98,2.53,14.95c-4.59,3.8,7.56,10.32,11.01,10.51c2.54-1.5,13.32,9.94,8.39,9.53
		c-11.25-4.49-21.94-9.08-31.14-17.61c-20.4,3.18,36.78,19.54,38.43,29.02c2.37,5.36-8.46,4.99-8-0.05
		c-1.31,1.44,0.59,4.36-2.68,4.98c14.33,0.46,20.97,13.32,29.56,25.6c22.21,14.54-21.88,4.11-27.41-3.22
		c-12.77-8.19-24.83-20.2-29.5-35c-29.64-57.3,18.29,88.23,78.81,41.47c3.72-3.32-0.92-10.18,2.83-12.09
		c31.8-11.01,14.14,31.43,4.02,46.69c6.06-17.55-13.97-22.16-26.64-21.22c-5.66,3.31-18.93,0.44-27.01,6.88
		c2.39,1.5,3.06,3.89,0.57,5.78c-5.19-10.72-18.64-21.95-32.84-15.96c-16.89,0.74-21.8,47.79-9.6,38.98
		c-2.59-8.39-3.04-17.91,3.11-25c15.79-31.81,56.67,21.07,20.12,21.6c-8.11-0.65-7.11-10.1-9.87-13.83
		c-4.19,1.42-3.42,7.22-2.41,10.52c11,28.82,17.08,4.8,28.32,16.65c45.56,22.43,86.89-40.64,72.86-81.3
		c1.28-25.5-20.33-24.36,2.11-33.41c24.35,41.39,18.51,93.71-19.01,124.69c-4.48,5.2-23.13,5.79-14.77,10.49
		c2.64,2.32,6.21-2.39,9-0.93c3.65,29.62,39.24,51.9,62.03,69.91c18.3,13.49,37.7,23.44,59.79,29.94
		c11.34,0.79,0.21,6.92,3.86,10.92c5.29-13.77,20.11-2.79,31.86-1.99c13.05,4.07,24.57,1.38,37.1,1.75
		c-27.73-3.63-59.58-13.79-87.64-23.01c-19.92-1.8-122.06-74.33-96.87-87.68c36.13-10.2,52.82-52.33,56.12-31.25
		c22.37,39.81,73.52,51.41,114.55,61.61c69.25,9.3,155.73-12.52,196.61-72.73c6.67-4.73,12.89,16.74,19.7,20.84
		c7.2,11.09,27.43,19.4,25.49,32.88c-26.11,42.12-75.09,73.08-122.37,85.14c-19.17,7-39.47,9.29-58.98,13.7
		c26.58,8.58,57.35-13.36,82.05-11.99c18.24-8.19,86.07-49.77,105.32-88.9c-1.16-20.89-34.1-29.74-40.78-51.4
		c-2.69-2.16,3.9-12.19,4.32-6.38c1.31,12.89,11.99,30.47,23.41,33.9c-25.57-26.38-26.41-63.68-16.28-96.75
		c4.52-10.67,13.9-26.98,18.16-7.15c-4.9,9.66-6.86,20.28-8.53,30.81c-3.43,16.94,0.75,34.98,9.75,49.76
		c11.04,21.73,34.39,31.88,57.09,24.94c9-3.85,24.54-2.68,28.79-12.44c-54.54,18.67-1.72-58.38,15.7-2.62
		c-0.36,17.92-10.05-23.04-24.11-12.46c-6.21,2.48-9.78,16.41,0.3,11.41c1.14-6.6,8.17-7.06,10.4-0.78
		c7.34,24.59-28.13,34.55-46.16,31.65c-13.88-4.44-29.65-9.38-38.74-21.75c-1.66-1.63-6.49-12.5-9.03-8.59
		c4.67,19.63,21.61,30.83,39.28,39.31c2.17,2.63,4.99,11.81,7.05,6.98c-9.49-13.7,12.78-3.07,19.58-5.4
		c-3.89-3.5-10.05-0.69-14.67-2.63c-2.17-0.06-4.28-0.39-6.77-1.64c23.22,1.91,49.02-5.9,57.75-28.3
		c11.15,8.76,11.18-12.79,9.14-20.37c-4.07-5.98-9.86-9.64-14.46-15.02c-5.97,5.7-21.37-1.81-28.08,8.8
		c-3.78,8.54-8.45-7.07-14.38-8.62c17.96-1.26,51.83-44.68,45.19-56.63c-10.2,13.02-14.02,36.02-32.66,40.01
		c-3.41,1.82-7.49,0.58-11.27,1.03c-6.21,6.91,17.41-1.56,12.65,6.04c-4.57,6.19-40.59,4.87-32.21-2.59
		c0.33-5.19-7.54,2.73-9.46,3.82c-19.4,34.56,48.68-8.45,30.03,36.94c-5.74,10.9-32.89,14.43-35.58,1.19
		c7.03-0.14,15.45,5.19,21.64-1.08c7.01-16.38-9.06-2.81-15.78-6c-16.83-5.42-30.98-35.76-5.1-37.47c6.91,0.13,8.78-6.72,15.43-1.3
		c14.29-3.57,21.04-13.98,26.84-26.93c7.91-8.5,32.09-8.61,33.12-17.51c-7.94-0.86-15.08,5.65-23.11,4.69
		c4.78-3.61,9.57-6.87,14.77-9.76c0.27-6.29,5.19-12.73,5.67-19.82c1.95-5.75-3.62-18.93-4.02-9.49
		c3.8,13.84-5.91,27.22-18.09,33.58c-13.71,2.02,13.33-13.38,11.13-22.12c3.15-11.28-11.64-28.37-22.57-22.18
		c1.23,6.87,14.53,3.55,14.58,12.59c7.88,13.98-31.38,42.28-23.33,24.03c7.81-2.77,21.01-17.43,14.67-23.55
		c-2.78,0.91-7.08-0.06-7.99-3.47c-1.61-2.35-4.79-9.3-6.84-2.88c0.32,1.77,0.77,7.05-2.07,4.68c-11.12-17.66,10.75-29.51,25.27-20
		c5.3,0.85,16.76,19.9,17.06,11.43c-15.65-33.56-58.14-7.98-16.38-56.57c3.27-2.48,3.49-8.82,8.46-8.15
		c-5.94-3.53-12.37,8.71-11.69-4.89c62.6-9.12,33.29-69.85,3.92-97.56c-40.87-20.15,36.72,9.97,54.48-32.03
		c1.78-4.42,3.02-7.62,4.49-0.73c4.34-5.09,6.32-16.06,6.8-23.04C820.62,358.36,787.34,397.91,791.94,370.07z M694.23,284.2
		c1.19-11.97,11.57-25.71,25.68-23.67c17.21,3.41,16.63,40.93-4.42,32.09c-7.75-4.26,0.6-12.17-0.71-17.29
		c-3.22-7.29-10.51,2.22-12.02,6.37C704.09,298.92,704.83,295.88,694.23,284.2z M188.51,390.17c-4.49-3.88,5.81-14.99,7.34-8.58
		C192.97,383.66,191.24,389.87,188.51,390.17z M261.69,716.04c2.74,0.26-0.94,3.56-1.38,1.29
		C260.28,716.43,261.12,716.24,261.69,716.04z M255.97,713.75c4.59,0.19,3.17,4.12-0.21,5.56
		C252.27,721.08,252.24,712.82,255.97,713.75z M236.7,756.95c-7.94-0.15-16-5.22-22.67-9.19c3.56-3.93,8.9-4.57,8.14-11.01
		c4.7,4.2,5.65,11.81,10.32,16.59C234.46,753.59,240.83,753.83,236.7,756.95z M269.83,746.08c-26.01,29.89-66.98-29.83-22.84-25.52
		c8.75,1.82,15.45,7.06,22.62-0.91c5.97,4.82,2.09,14.38-5.54,14.62c-7.97-2.08-17.7-13.06-25.67-2.94
		C229.24,755.07,271.38,740.54,269.83,746.08z M259.08,739.24c-2.39,2.78-20.07,0.63-13.6-5.26
		C250.56,731.6,255.01,737.6,259.08,739.24z M269.64,738.94c1.41-0.7,2.56-1.68,4.04-2.11
		C273.71,739.15,272.39,739.84,269.64,738.94z M716.22,722.46c-2.97,0.59-2.93-3.26-0.36-3.93
		C726.19,717.44,726.79,722.32,716.22,722.46z M743.31,756.61c1.61-5.11,8.19-3.35,4.41,0.61
		C746.58,757.76,741.93,759.12,743.31,756.61z M751.17,349.48c18.01,8.64,5.84,37.44-12.87,35.03c-12.92,0.41-37.24-14-36.5-26.86
		C717.21,379.82,754.7,379.71,751.17,349.48z M708.68,377.13c24.3,29.83,80.05-2.78,45.43-31.59c-7.15-4.37-13.83-4.12-16.96,4.36
		c1.9,4.42,9.88-4.44,9.64,9.59c-11.37,22.49-34.65,3.7-21.27-16.05c11.58-18.29,38.98-18.25,54.98-6.18
		c30.77,32.28-11.07,84.4-47.48,56.29c-8.39-4.53-17.56,6.28-6.41,10c14.66,0.89,32.08-2.81,39.71,14.24
		c8.44,10.17-5.07,5.19-10.43,6.98c-20.27-0.82-33.16-24.81-52.12-29.18c-11.09-0.94-2.77,13.5,2.43,16.14
		c4.62,2.1,10.74,1.43,12.54,7.46c4.27,4.05,16.52,13.6,2.88,10.75c-23.18-3.97-32.87-33.8-44.99-49.49
		C697.67,370.11,690.57,354.89,708.68,377.13z M766.59,408.36c-12.1-5.74,6.67-6.9,10.96-10.44
		C784.81,403.27,775.16,411.36,766.59,408.36z M771.56,412.61c2.02-0.14,4.15-0.55,6.58-0.4
		C785.99,416.38,762.97,418.71,771.56,412.61z M734.61,398.23c-0.71,2.25-6.94,1.13-6.1-1.47
		C729.25,395.11,734.54,396.59,734.61,398.23z M714.27,411.14c-2.3,0.55-4.33-3.87-1.78-4.43
		C713.5,407.25,716.36,410.48,714.27,411.14z M702.29,407.32c-2.92-5.46,3.6-11.17,7.74-5.77
		C710.68,405.12,706.07,411.97,702.29,407.32z M673.33,379.16c5.66,19.53,17.29,39.69,34.4,52.59c11.86,7.1,27.89,0.5,37.77,11.99
		c2.98,7.73-6.28-1.65-8.2,2.19c-2.4,4.53-6.04-3.18-9.65,0.65c-4.02,2.14-10.04-6.31-12.27,2.2c-4.65,1.27-6.05-12.05-11.89-14.39
		c-6.26-0.76,3.77,33.55-10.05,41.64c-6.21,2.03-6.46-9.64-13.01-10.35c-8.48-1.88-10.7,12.4-4.17,16.37
		c2.33,6.88-9.86-1.63-9.34-5.33c-5.08-16.11,12-31.8,23.37-15.32c11.13-25.19-15.75-68.08-28.18-80.42
		C664.98,380.74,672.74,375.3,673.33,379.16z M704.94,462.54c2.04-17.93,4.41-17.48,7.87-0.17c10.25,11.76,9.84,26.01,2.09,39.37
		c-0.48-11.01-10.19-10.19-15.64-15.83C690.45,480.83,707.38,470.99,704.94,462.54z M720.29,449.23c8.03-1.09,6.24,13.06,8.02,18.32
		C725.72,479.85,707.99,452.45,720.29,449.23z M688.66,479.82c-6.1,4.73-14.59-2.03-9.54-7.92
		C683.58,471.97,684.38,478.28,688.66,479.82z M678.27,527.73c3.96-26.17,7.12-10.06,13.03,2.92c11.55,9.8,19.09-2.12,15.33,18.28
		c-1.9,3.2-7.37-1.59-10.84,0.3c-3.03-1.07-8.31,7.82-8.57,3.19C706.75,540.66,685.43,535.52,678.27,527.73z M682.42,536.68
		c30.97,9.26-19.02,7.12-26.39,42.67c2.67-19.12,4.9-40.34,5.9-59.68C666.34,527.08,673.69,533.29,682.42,536.68z M683.74,554.56
		c-19.35,16.34-1.64,78.96-19.6,37.73C655.42,578.56,670.23,557.13,683.74,554.56z M629.68,713.85c1.14,3.85,11.22,13.78,1.67,12.63
		c-5.07-5.63-7.96-22.15-13.63-23.47c-6.18,13.01-16.34,30.87,1.66,9.94c11.31,14.48,9.4,15.97-5.59,23.64
		c-28.66,32.51-49.21,5.92-12.25-12.85c3.87,3.17,11.27,9.3,6.49,0.85c-11.03-6.49,7.97-19.77,9.29-28.59
		c12.3-21.72,26.12-45.09,29.91-69.27c4.39-14.14,5.11-28.9,8.62-43.23c9.12,17.82-4.42,31.97-6.49,49.85
		C650.3,662.12,609.09,687.66,629.68,713.85z M668.19,485.2c13.18-2.6-3.49,10.95-4.01,16.61
		C659.57,503.89,665.62,488.15,668.19,485.2z M664.66,480.9c2.15,0.31,2.03,3.96-0.17,4.83
		C664.02,484.33,663.23,481.49,664.66,480.9z M677.98,447.2c5.25-5.5,4.29-26.34,8.7-9.11C691.4,452.25,686.03,455.16,677.98,447.2z
		 M650.29,385.22c27.83-1.04,38.73,55.57,15.52,68.09c-6.07-18.17,11.34-52.36-7.85-61.94
		C654.02,391.21,641.82,382.95,650.29,385.22z M651.23,392.95c22.62-1.32,3.59,101.62,6.12,123.18
		c-0.22,119.1-46.81,233.6-165.99,276.69c-115.65-50.56-161.15-148.22-161.1-268.5c5.45-25.21-15.09-132.77,13.24-127.92
		c24.97-5.74,49.95-12.85,75.02-17.65c5.05,0.08,14.71-1.79,13.35,6.26c2.78,8.83,12.21,15.95,15.89,24.97
		c12.95,13.3-21.68-6.41-49.38,36.05c-14.29,11.99-18.55,31.73-12.49,47.29c5.48,3.59,7.46-3.02,9.73-5.91
		c3.59-1.61,6.71,3.47,8.36-1.59c3.2-4.27,7.26,1.55,4.29,4.54c-6.95,0.47-12.68,5.32-18.55,10.66
		c-3.99,15.6-21.08,15.15-21.14,27.79c1.96,5.86,5.38-0.33,4.9-3.4c3.55-3.28,8.43-6.47,12.34-8.72
		c-5.87,17.65,9.75,21.07,2.61,8.66c9.03-59.67,10.39,16.25,64.34-42.07c36.6-33.2,6.91,29.37-5,42.6
		c-21.46,30.9-49.7,61.01-57.44,98.41c-33.28,164.2,202.48,176.16,223.57,23.81c1.69-21.95,3.59-46.88-11.53-64.59
		c-0.98-11.3-0.48-25.43-6.28-36.99c-8.79-24.49-38.36-36.12-41.06-63.62c-3.31-13.37,14.57-21.13,13.46-33.2
		c-19.63-13.53-41.49,20.33-37.3,39.3c2.52,25.03,17.56,47.23,28.24,70.23c-132.09-18.72-130.49,133.97-23.68,102.94
		c8.89-0.97,17.36-10.26,24.66-11.76c-6.27,21.59-25.2,42.52-47.61,47.49c-65.29,11.29-90.17-66.72-54.12-112.35
		c145.43-164.81-20.87-151.84,55.71-182.52C556.5,381.82,606.93,376.11,651.23,392.95z M389.59,740.61
		c3.13-6.27,8.32-4.33,9.78,1.91c6.65,11.59-13.89,15.79-18.66,7.83c-1.73-4.22,6.18-3.36,8.42-5.45
		C391.56,744.11,389.45,741.75,389.59,740.61z M363.46,734.41c-12.77,3.89,6.65-20.16,7.94-26.03
		C382.56,695.9,366.21,729.58,363.46,734.41z M325.13,409.66c1.07,16.44,0.78,37.31-0.63,53.71c-14.97-15.58-5.47-34.49-1.21-53.57
		c-13.15,5.34-7.02,36.28-14.72,38.81c-1.74-21.78,4.27-39.91,18.26-56.75C336.11,386.83,319.75,404.86,325.13,409.66z
		 M340.96,375.52c-1.25-1.5-0.36-3.07,1.59-2.55c15.78,4.9,31.35-0.07,46.64-3.85c-10.59,17.38,31.54-14.45,37.54-17.89
		c-1.93,15.88-18.92,31.1-34.41,26.73c-0.33-2.32-2.95-2.74-1.99,0c-4.32,6.04-17.85,6.34-24.51,6.3
		c-8.26,7.32-20.85,4.36-30.27,10.14c-8.21,0.89,3.41-8.66,4.41-11.81c8.67-5.62,23.17,1.86,31.99-5.25
		C362.44,374.06,349.83,377.71,340.96,375.52z M451.4,268.26c2.13-9.72,11.04,1.32,17.16,1.9c10.53,4.98,38.99-14.25,36.06,3.9
		c-8.57,7.03-23.79,7.66-34.51,12.92c-7.88,1.84-12.39-7.86-19.9-8.74C445.48,276.42,451.76,271.5,451.4,268.26z M467.14,291.64
		c15.45-3.58,32.69-13.35,47.74-15.32c14.65,11.02-31.05,14.41-37.4,19.62c-4.16-0.09-8.15,3.25-11.78,3.96
		c-6.1-6.12-20.15-7.09-21.13-16.82C444.74,270.1,460.48,294.9,467.14,291.64z M510.13,269.03c0.05-1.6,2.69-1.75,2.86-0.11
		C512.94,270.24,509.76,271.05,510.13,269.03z M531.07,220.16c-8.15,9.6,1.45,16.01,1.9,25.52c-17.16,2.38-19.18,7.17-19.93-12.19
		c-1.4-12.7-19.28-4.89-21.26-12.24C504.05,223.69,518.94,218.26,531.07,220.16z M492.88,208.88c9.16-3.46,13.34,7.48,21.48-5.37
		c3.35,0.64,1.25,5.65,5.51,4.87c1.53-0.03,2.33,1.95,1.77,3.3C517.19,218.46,492.02,220.32,492.88,208.88z M540.35,216.25
		c-7.23,3.47-23.99-8.79-12.39-9.31c4.78,4.11,11.09,2.3,16.48,1.15C555.89,208.52,550.27,219.35,540.35,216.25z M542.97,223.07
		c0,2.39-2.73,7.47-4.93,3.75C534.53,223.06,541.05,217.1,542.97,223.07z M543.04,279.35c-4.28-0.01-8.64,5.93-12.26,2.86
		c-3.74-3.4-12.24-1.8-12.36-8.48c3.03-6.18-2.36-17.06,2.23-20.94c10.85,2.55,17.3-8.63,18.17,4.08
		C537.76,264.54,547.86,273.21,543.04,279.35z M539.83,335.82c-0.71-1.58-3.41-4.77-0.43-5.38c6.68-0.67,6.68,12.71,12.78,15.74
		c3.18,4.03,28.97,27.96,13.19,24.92c-5.62-5.21-10.55-16.77-17.18-18.62c-1.81,2.82-5.08,7-7.85,2.36
		c-2.44-4.58,8.46-5.01,6.43-9.16c-5-6.27-9.72,8.15-13.55,3.11C527.26,342.72,542.59,341.14,539.83,335.82z M540.97,308.26
		c1.68,3.35,12.58,18.32,8.04,20.18C541.96,326.56,538.25,313.76,540.97,308.26z M441.76,604.94c-8.61,22.42-9.37,47.32-6.52,70.47
		c19.6,26.97,58.37,38.94,88.34,24.13c31.54-12.69,34.79-50.78,63.04-65.36c6.87-4.56,5.23-15.69,12.88-7.25
		c-1.18-33.43,10.53-0.8,5.53,12.18c-0.67,6.38-7.33,45.33-14.71,38.32c-0.91-2.25,3.91-16.81-1.8-11.55
		c-9.29,32.69-39.36,63.24-73.98,64.59c-16,2.04-30.78,5.23-45.45-3.72c-5.29-1.04-7.41,7.83-3.51,10.74
		c4.34-6.52,9.95,0.96,15.34-1.79c10.29,4.66-7.04,6.34-11.42,4.62c-17.99-0.48-35.03-13.71-45.74-29.14
		c-5.74-1.73-0.95,6.99-0.89,9.53c-6.4,4.47-16.22-12.68-19.67-18.55c-16.16-28.71-12.18-62.33-3.83-92.79
		c15.35-45.47,61.23-74.5,72.72-120.27c1.34-5.54,11.96-2.37,12.93-10.17c4.34-11.82,2.15-28.67-11.64-32.4
		c-3.21-0.65-7.47-4.27-10.15-1.92c-0.16,4.2,7.86,4.68,5.93,10.18c0.82,8.82-10.73,8.1-14.87,10.18
		c-6.35,17.66-29.39,38.5-48.35,35.3c-4.29-5.63,3.6-3.35,6.04-4.84c-1.2-2.21-2.95-6.64,1.68-6.24
		c8.95,13.36,21.16-12.69,30.87-17.75c11.63-5.67-7.13-3.01-9.84,2.31c-8.13,6.28-18.59,5.11-27.62,8
		c-49.22,9.03,5.56-50.7,23.44-56.77c8.12-5.94,24.76,0.63,29.4-4.67c-8.19-12.47-20.05-26.51-24.54-39.69
		c8.73-11.81,17.3-25.13,25.98-36.27c3.95,2.27,3.1,9.77,8.63,10.59c-3.68-14.04-1.19-34.77-1.78-51.61
		c7.3-4.49,19.33-6.67,27.9-8.91c15.33-6.59,4.7,18.54,8.52,27.83c11.83,24.7-19.22,18.43-31.48,34.39
		c59.7-20.37,33.7-33.93,46.61,9.31c-0.09,3.98,7.8,6.4,4.09,9.75c-20.55,14.3-40.74,30.49-59.63,45.83
		c25.84-4.08,47.01,15.55,45.29,42.85C511.87,519.53,455.39,553.24,441.76,604.94z M511.26,494.56c-0.54,5.03-2.48,10.85-5.58,14.93
		C506.56,504.41,508.43,498.82,511.26,494.56z M505.64,509.64c0.13,1.47-0.82,2.5-1.71,4.04
		C503.93,511.75,504.53,510.58,505.64,509.64z M494.9,529.5c-0.08-0.55-0.07-1.09,0.45-1.7C495.78,528.69,495.54,529.16,494.9,529.5
		z M494.82,529.61c-5.07,8.8-11.65,19.26-19.27,25.23C480.73,546.12,487.47,536.52,494.82,529.61z M456.18,685.57
		c-8.41-2.32-18.21-12.73-15.21-22.73C444.83,671.24,450,678.73,456.18,685.57z M562.82,632.14c4.19-3.63,11.34-7.52,12.7-14.27
		c2.25-8.38,11.34-14.05,12.2-23.35c3.3-5.27-4.66-10.84-4.31-2.31c1.26,5.63-6.13,5.87-5.87,10.69
		c-1.53,6.31-10.15,7.43-7.49,15.32c-11.45,6.5-16.03,21.26-30.06,23.66c-9.39,9.07-17.21,6.62-27.98,8.54
		c-2.02,1.21-3.51-1.71-5.04-2.78c-4.3-3-10.49-1.97-14.74-4.77c-5.82-2.84-9.6-8.38-13.09,0.21
		c-14.24,17.07-23.28-41.67-4.32-54.59c19.14-25.2,53.49-28.94,82.77-23.53c9.02-0.72,8.41,25.33,1.23,24.34
		c-12.19-3.74-24.16-14.65-36.94-6.89c-5.8-4.01-5.84-1.97-11.47,1.41c-11.59,1.69-13.31,18.7-13.72,28.24
		c8.4,21.94,43.65,6.42,55.89-6.17c49.37-42.88-44.5-97.51-9.38-145.15c2.85-5.21,21.57-17.04,19.43-4.57
		c-6.81,5.68-18.19,16.3-15.06,26.14c11.26,37.06,53.13,63.71,47.63,107.01c-5.45,44.15-53.72,81.21-96.54,70.17
		c-6.3-2.9-15.93-2.01-19.74-8.33c-3.04-2.45,3.42-9.03,6.09-6.71c5.56-0.85,3.87,5.74,8.73,6.1c4.21-1.66,4.41,6.42,7.83,4.56
		c5.45-3.58,8.92,7.18,15.16-1.31c14.66,2.58,27.09-6.08,38.38-13.86C558.25,638.14,563.63,637.44,562.82,632.14z M533.36,593.26
		c-10.08-0.63-20.38,1.48-28.33,7.68c-0.91-8.28,7.49-14.21,15.33-13.62C538.25,581.43,577.32,603.8,533.36,593.26z M548.67,601.89
		c-7.83,8.94-32.95,20.9-42.19,10.36C506.76,594.33,538.14,595.02,548.67,601.89z M596.69,607.36c3.86-16.56,6.37-19.06,11.33-1.08
		C611.9,611.29,595.82,609.31,596.69,607.36z M535.09,741.25c4.48,0.41,6.45-3.6,6.62-7.41c4.42-9.86,18-14.14,25.52-22.16
		c12.32-6.34,13.67-28.52,28.25-28.61c0.33,17.46-24.96,39.73-41.02,50.56C548.59,739.92,516.83,748.49,535.09,741.25z
		 M530.3,734.58c0.56-3.34,7.3-4.32,7.57-0.93C537.42,737.66,531.49,738.47,530.3,734.58z M520.58,741.17
		c-5.56-0.74-36.26,5.44-34.89,0.87c2.93-7.74,11.56-3.19,17.31-6.39c2.82,0.26,5.01,4.92,7.51,1.13c3.25-4.45,6.17,2.79,9.17-0.34
		C527.08,729.6,530.44,740.99,520.58,741.17z M523.25,746.46c-22.55,7.15-49.39,5.65-70.88-3.25
		C476.14,746.96,499.1,750.35,523.25,746.46z M527.46,745.16c-0.6,1.08-1.61,0.82-2.96,0.81
		C525.61,745.14,526.56,745.2,527.46,745.16z M452.25,743.14c-9.22-2.72-23.78-8.45-27.84-16.63
		C433.06,726.2,442.19,740.39,452.25,743.14z M468.72,469.33c-21.59,4.12,0.23,0.82,4.8-8.63c1.23-1.55,0.66-7.97,3.58-5.09
		c4.41,5.44,6.79,21.09-1.32,23.48C474.22,475.38,474.88,469.09,468.72,469.33z M392.27,488.46c0.13,4.52-5.77,2.48-5.82-0.9
		C386.55,484.15,392.9,484.23,392.27,488.46z M461.21,335.01c-1.28-13.35-7.7-26.51-9.49-39.77c10.08,3.18,14.33,11.22,12.46,21.75
		C463.86,323.4,467.38,354.8,461.21,335.01z M458.38,340.92c-4.41,6.35-28.47,44.96-31.73,29.84
		C439.77,367.17,449.68,336.76,458.38,340.92z M493.72,406.22c16.53-15.32,47.33-24.96,28.48-50.63
		c2.77-20.05-11.03-21.15-12.42-38.03c3-7.46,0.45,14.03,8.59,12.89c33.07,3.88-14.94,16.68,26.94,30.79
		c10.45-0.03,17.08,25.52,29.45,12.13c1.76-2.8,4.38,2.25,5.92,3.44c-28.12,8.48-69.74,15.44-95.14,38.26
		C477.35,418.64,491.36,408.07,493.72,406.22z M578.49,365.54c-5.95-6.47-34.67-26.76-25.4-32.64
		c13.59,14.75,28.71,27.85,45.41,39.24C600,384.66,581.6,370.76,578.49,365.54z M536.66,329.38c-1.17,0.39-4.63,0.21-5.35-1.12
		c-3.03-5.82-11.59,0.78-13.88-5.77c-4.09-10.03,8.53-0.31,12-2.29c2.99-9.28-21.05-3.57-13.74-14.11
		c2.98-0.57,15.06,8.16,13.16,0.86c-4.09-4.98-13.27-2.55-16.35-8.73c0.75-4.8,7.21-2.44,9.83-0.66c1.94,1.56,6.67,2.36,4.58-1.45
		c-2.65-4.74-18.35-2.59-10.78-9.16c2.4-2.93,6.74,3.4,8.09-0.75c4.59-13.7,4.67,15.09,8.43,18.67
		C534.22,312.71,537.16,321.42,536.66,329.38z M449.53,317.6c2.91-0.55,8.14,16.85,3.51,18.95c-8.37,6.36-16.92,26.2-25.91,26.01
		c1.45-3.97,3.28-9.28-0.88-12.08C427.55,340.43,446.94,330.95,449.53,317.6z M606.95,378.54c-5.78,0.01-0.94-8.98-5.81-11.84
		C597.75,357.57,616.54,378.63,606.95,378.54z M630.38,286.38c35.37-7.09,70.45,26.72,47.67,47.76c-4.18-15.48-1.95-7.32,3.02-18.54
		C678.1,274.77,619.53,307.2,630.38,286.38z M628.79,305.58c12.94-13.86,45.68-8.88,47.84,11.89c-9.78-4.26-23.11-12.88-34.62-4.65
		c-4.55,1.38-13.41,13.67-4.37,12.17c3.84-3.67,7.5-8.12,12.9-9.36c11.86-3.43,24.77,12.19,22.07,23.79
		c-9.9,45.89-67.73,25.06-93.67,5.96c-7.86-3.29-50.21-55.42-23.71-31.64c-2.96-17.45-10.38-7.19-19.09-13.86
		c-17.47-19.83,16.66-5.48,11.78-27.49c-2.44-6.09,0.55-14.42-5.85-15.8c1.64-10.96-6.85-19.48-10.48-29.94
		c7.56-1.13,9.02,12.76,12.86,17.07c5.16-3.58-1.69-14.5-0.24-20.17c8.21-5.08,9.72,18.8,5.78,23.7c-5.13,5.1,2.51,10.91,1.91,16.94
		c1.51,14.79,4.27,13.61,6.93,0.08c10.01,5.68-3.07,28.85-4.46,38.7c26.64,32.16,50.22,48.18,5.02,1.73
		c0.7-7.77,29.12,29.52,40.64,29.73c4.8,3.86,10.48,5.83,16.99,4.94c10.99,11.09,35.6,28.12,45.18,4.93
		c7.43-19.73-31.61-23.48-5.92-9.64C666.95,369.95,601.05,349.07,628.79,305.58z M556.71,222.06c4.7-0.69,1.42,7.49-1.05,3.64
		C554.74,224.26,553.9,221.6,556.71,222.06z M564.28,294.55c0.7,1.01,2.8,4.61,0.44,4.41C562.38,298.64,562.03,295.55,564.28,294.55
		z M606.52,333.12c4.94-9.75,21.04,2.86,7.78,3.18C612.24,334.31,605.66,337.52,606.52,333.12z M623.4,299.37
		c3.66-1.4,0.43,4.87-1,2.57C621.71,300.91,622.21,299.63,623.4,299.37z M596.35,295.43c2.23-22.04,41.09-3.38,25.83-0.78
		c-3.09-2.33-11.7-4.46-12.25,0.56c2.7,3.82,11.33,6.76,5.98,12.19C609.09,312.69,595.75,303.06,596.35,295.43z M575.21,250.08
		c7.33-0.59,12.79-2.25,7.53,6.53c-2.07,3.5,1.34,11.85-3.45,12.74C576.19,266.51,571.4,252.44,575.21,250.08z M563.74,241.87
		c5.31,10.67,5.54,23.99,10.28,34.52c9.45,13.52,21.52,41.65,41.97,34.9c7.5,0.01-4.48,11.91-8.48,11.35
		c-17.5,4.6-31.65-17.38-37.92-31.35C568.27,283.19,543.62,206.54,563.74,241.87z M568.22,208.99c10.53,16.52-27.02,7.98-11.77,1.55
		C561.76,216.12,564.12,203.23,568.22,208.99z M535.55,196.15c-8.14-15.57,23.96-2.15,28.06,4.04c-3.85,6.17-12.92-0.62-18.19,0.52
		c-2.68,7.13-4.96,1.58-8.07-1.18c-4.49,5.13-8.02,4.36-13.5,0.15c-6.34,2.91-12.58,0.74-13.61-6.29
		C518.66,186.13,528.53,193.11,535.55,196.15z M486.25,206.73c-24.31-22.07,35.41-9.85,22.81-4.43c-2.11-2.07-3.66-0.11-5.27,0.63
		c-2.58,0.72-5.3-1.13-8.27-0.5C490.37,200.57,489.8,211.7,486.25,206.73z M487.2,228.23c-4.76,8.98-7.22,18.7-11.21,27.81
		c8.71,8.06,7.81-12.69,10.99-17.73c2.42-9.82,17.76-12.41,21.39-2c-0.13,4.8,1.72,17.04-4.3,17.19
		c-3.88-0.82-20.51-1.21-18.19,4.01c8.84-0.35,17.49-1.43,25.88-3.52c13.05,3.77-4.54,11.22-11.29,8.58
		c-9.24,1.45-18.31,3.27-28.01,3.97c-4.83-1.11-26.5-5.9-17.81-11.83c3.78,0.59,7.16,2.95,11.37,4.33
		c8.34-1.27,9.03-20.01,13.98-27.27C478.44,225.93,488.89,218.57,487.2,228.23z M461.5,239.78c3.19-5.8,2.05-15.76,11.05-11.72
		c12.9-1.03-4.47,17.12-3.59,24.6C456.83,260.45,455.47,249.9,461.5,239.78z M447.58,233.35c17.46-15.23,8.17,16.17,1.28,14.21
		C438.5,241.35,443.56,241.87,447.58,233.35z M409.08,250.97c-3.81-11.75,14.83-24.8,19.7-11.17c3.15-3.9,8.1-13.17,14.64-10.11
		c-3.42,6.75-13.27,15.3-20.25,19.21c-4.76,3.08-1.92-8.11-6.95-5.8C412.49,247.04,415.07,265.6,409.08,250.97z M412.22,265.99
		c9.92-7.17,17.82-21.33,30.26-17.86c-8.35,7.68-29.13,45.92-35.99,40.12C411.63,281.63,409.75,272.63,412.22,265.99z
		 M395.41,315.42c12.69-1.66,10.93-11.83,7.57-19.5c12.04-3.77,19.16-15.22,26.64-24.86c23.17-33.4,19.01-19.62,3.17,6.11
		c-3.4,15.36-8.03,25.71-19.11,37.38c-8.88,11.64-32.57,10.86-26.88-7.46c0.37-4.76-4.77,0.01-5.56,2.3
		c-6.2,9.5,4.29,14.8,7.97,20.72c-8.36,2.31-15.77-8.73-15.41-16.35C371.56,286.34,416.66,290.16,395.41,315.42z M435.7,292.29
		c4.6-18.46-0.04-9.07,8.05,1.42C444.71,296.49,434.47,295.34,435.7,292.29z M435.95,301.22c-7.71,14.76-23.27,34.95-40.94,34.53
		c7.62-7.52,20.12-12.32,27.41-21.96C426.95,311.41,431.4,292.53,435.95,301.22z M440.7,275.29c0.46-2.86,2.28-4.44,3.58-6.32
		C443.33,271.07,443.87,273.95,440.7,275.29z M390.85,341.24c-9.45,3.24-21.36,5.8-30.91,4.16
		C365.38,340.52,396.92,324.88,390.85,341.24z M372.07,322.66c9.31,5.71-11.48,18.36-16.76,17.92c0.89-4.68,9.25-6.41,11.74-11.06
		C369.62,327.79,368.71,323.04,372.07,322.66z M295.88,314.6c0.21-31.37,27.85-55.92,60.08-51.06c6.65-0.63,30.83,14.64,29.22,4.99
		c-5.12-0.12-5.55-6.07-2.25-8.93c10.46-12.21,19.54,12.67,8.14,19.41c-16.78,7.69-33.66-5.96-50.89-2
		c-15.86,1.52-21.6,18.54-27.53,31.31c-2.01,4.1,4.73,26.75,4.99,13.89c-9.18-32.59,42.11-55.87,51.01-17.82
		c7.92,18.88-21.78,46.56-34.44,23.8c1.31-6.86,6.49,3.79,10.54,2.33c8.44,4.66,26.03-15.64,14.04-14.87
		c-0.8,8.3-18.23,8.32-11.28-0.99c4.36-0.85,7.32-3.67,1.49-5.28c-58.87,26.43,24.03,66.66,69.13,21.54
		c9.05-6.94,17.89-16.7,20.48-27.58c19.51-11.79,1.4,24.62-7.15,29.94c-27.02,27.71-79.08,52.11-111.37,21.8
		c-5.47-5.02-5.65-13.37-8.68-18.71c-6.39,10.78,10.43,28.93,20.25,34.72C353.72,388.27,284.68,364.48,295.88,314.6z M352.54,343.94
		c-1.43,1.31-3.76-0.08-5.32-1.35C349.12,342.24,352.18,341.85,352.54,343.94z M340.44,321.3c0.39-0.04,0.61,0.57,0.23,0.81
		C340.21,322.3,340.11,321.47,340.44,321.3z M320.2,380.53c-21.97,22.16-5.36,16.5-26.24,7.91c-0.7-5.15,11.11-13.92,15.81-17.73
		C312.81,372.38,323.1,376.6,320.2,380.53z M291.6,344.8c7.42,21.06-32.51,45.7-41.07,18.47c-0.67-12.58,15.03,28.02,33.23-9.93
		C285.8,346.58,282.3,336.34,291.6,344.8z M248.94,368.81c1.29,12.38-15.39-11.21-0.03-21.27
		C257.23,342.58,243.81,363.74,248.94,368.81z M230.41,396.55c-14.19,0.02-15.72-8.8-13.25-19.67c13.15,9.54,28.6,16.42,43.63,8.31
		c-25.28-5.21-40.08-3.58-33.11-39.23c11.55-17.11-11.96,3.3-16.35-4.94c7.27-30.31,69.38-25.96,68.55,7.49
		c1.33,17.34-26.53,25.77-25.09,4.69c0.83-8.58,12.1-8.87,14.41-14.89c-7.57-5.59-21.58-0.01-25.69,8.52
		c-29.11,42.96,42.82,23.42,22.61,43.86C253.45,392.26,242.46,395.48,230.41,396.55z M234.55,403.17c9.92-7.27,23.71-4.06,34.9-8.61
		c16.54-20.93-12.16-6.26,17.29-23.14c6.53-3.52,6.41-18.98,10.81-18.46c23.88,20.06-30.5,50.52-48.77,59.37
		C237.67,418.3,214.57,414.41,234.55,403.17z M275.32,416.79c-8.04-7.28-32.39,7.07-13.68-5.99c2.82-0.96,10.61-7.92,11.61-3.38
		C270.52,414.58,286.43,418.46,275.32,416.79z M299.28,394.64c3.06,9.6-12.6,12.72-18.63,17.43
		C269.04,412.25,293.36,385.86,299.28,394.64z M296.38,408.64c4.29-1.35-1.22,8.84-4.18,7.86
		C277.82,416.35,290.83,413.26,296.38,408.64z M332.61,380.28c-16.85,21.06-43.85,45.75-38.85,74.74
		c7.06,31.14,4.42-17.56,25.34,5.82c7.66,35.09-52.47,21.23-33.6-21.71C298.6,422.4,313.14,379.38,332.61,380.28z M296.09,448.04
		c-3.5-11.96,16.26-44.16,7.85-12.69C305.39,445.49,299.64,473.33,296.09,448.04z M231.85,434.56c15.89,9.24,32.51-3.34,49.11-3.23
		c2.16-0.91,3.79,0.85,1.98,2.7c-9.54,14.3-1.79,33.81,1.19,45.22c-28.72,10.85,17.44-36.74-43.77-37.91
		c-8.95-2.97-18.68,9.69-23.58,1.08C218.41,439.2,227.32,432.99,231.85,434.56z M209.13,486.03c4.64-36.03,29.02-51.63,59.02-29.8
		c3.61,14.75-2.89,29.3-2.87,44.08c3.64,2.84,2.07-4.83,4-5.9c3-1.14,4.55,7.3,2.43,8.53c-6.27,7.96,10.47,19.04,17.08,13.81
		c10.44-9.87-27.52-15.97-9.15-31.81c7.09-5.98,24.3,20.39,18.42,4.01c-3.93-2.87,1.83-4.44,4.46-3.83
		c14.76-3.09,15.19,21.9,9.07,31.31c-12.26,29.13-50.01,18.25-48.36-11.6c-1.41-2.93-1.26-21.8-6.81-14.96
		c0.69,6.15,3.99,12.26,2.88,18.91c-4.78,8.05-6.25-15.08-6.98-18.4c-2.32-4.54,5.73-5.84,2.28-9.93
		c-3.49-5.08,1.95-10.56-1.39-15.65c-4.84-15.1-25.97-8.53-18.78-1.28c10.38-11.01,9.07,5.09,2.11,10.5
		c-3.45,1.09-0.7-5.61-3.05-7.2c-0.19-1.76-5.26-1.83-3.32,0.52c2.65,11.71,8.86,22.68-5.67,28.78c-5.88,3.26-7.63,9.64-10.13,14.59
		C206.36,506.48,209.49,493.79,209.13,486.03z M247.44,495.67c3.26,18.52,16.55,34.35,33.28,43.74c3.98,2.05-1.35,9.1,2.96,12.42
		c3.8,5.58-2.01,2.33-5.28,2.3C252.2,555.9,238.81,508.05,247.44,495.67z M241.82,476.3c7.29-13.32,8.23-0.43,5.45,7.48
		C246.47,480.64,239.46,479.45,241.82,476.3z M215.37,557.9c-0.46-1.83-0.46-1.83-0.09-3.33
		C216.94,556.35,216.95,556.45,215.37,557.9z M224.26,558.43c-2.12-3.39-11.52-13.34-2.13-11.44
		C224.2,550.25,224.93,554.69,224.26,558.43z M214.99,548.85c-9.76-8.79-29.7-44.22-18.37-65.34c10.01-19.43,9.36-8.26,6.43,6.63
		c-1.88,25.19,10.7,32.07,25.49,11.5c-2.07,13.14,4.04,32.23,0.38,42.45C223.74,543.52,216.01,541.92,214.99,548.85z M226.24,552.12
		c4.26-13.31,19.74,20.07,23.25,26.04C237.4,590.73,232.51,559.16,226.24,552.12z M239.76,482.52c3.12-2.23,3.75,3.19,2.02,4.88
		c-6.24,28.75,0.83,59.61,28.93,73.41c3.74,3.23,12.09-8.13,9.84,2.08c-2.67,9.53,11.66,25.77-7.2,13.81
		C231.26,565.42,227.27,516.17,239.76,482.52z M282.77,605.93c0.86,25.42-23.15-24.72-27.05-31.23
		C263.19,566.77,283.4,595.57,282.77,605.93z M252.13,584.56c7.39,5.49,12.91,21.66,20.68,30.12c3,4.14-4.71,10.44-5.07,12.93
		c6.65,13.97-6.57,3.68-10.71,7.3c-9.65,7.53-29.14,3.15-17.12-8.75c8.52-0.13,6.68-4.06,12.47-6.68
		C262.59,609.77,254.37,594.59,252.13,584.56z M235.3,669.71c-4.34-0.56-1.73-5.61-4.01-8.39
		C232.97,654.43,236.25,667.33,235.3,669.71z M220.78,639.24c-16.73,2.42-21.32-16.26-14.49-28.06c8.31-15.23,42.86-27.71,45.3-2.95
		c0.26,16.01-27.37,7.62-20.68,27.02c1.67,11.96,15.21,4.82,6.72,18.47C231.36,659.51,221.14,645.79,220.78,639.24z M244.13,681.67
		c3.5,1.93,8.31,5.48,8.97,9.22C248.58,691.8,246.8,684.42,244.13,681.67z M258.05,696.05c9.21-11.96-22.03-19.82-18.44-34.61
		c-0.68-28.74,53.35-27.4,41.44,2.46c-10.56,12.77-5.85-8.82-12.24-7.05c-5.88,3.04-15.61,12.2-8.98-1.14
		c2.87-5.05,16.25,0.08,13.58-6.99c-10.4-10.8-29.1,0.88-25.88,14.87c0.22,11.66,16.21,16.24,18.72,26.54
		C269.84,697.73,251.84,705.68,258.05,696.05z M286.06,660.97c9.19,0.07,1.1,20.54-7.02,19.71c-10.17,4.32-26.69-14.54-11.62-18.64
		C271.43,674.38,283.56,673.56,286.06,660.97z M309.71,666.06c-0.09-9.29-8.44-16.62-8.8-24.95c4.58-6.17,3.42-30.23-3.29-29.79
		c2.08,12.45-9.1,46.89-23.56,26.65c-0.62-3.63,14.95-8,6.99-10.33c-1.95,2.5-4.42,2.79-6.64,0.22
		c21.69-19.52,12.73-23.18,3.64-45.18c5.04,0.39,8.87,5.44,12.46,7.67c2.64-8.28,2.25-21.49-0.15-30.28
		c2.45-13.72,10.12,9.2,7.36,15.19c8.88,8.34,3.85-23.36-10.39-27.35c-4.06-14.79,19.74,2.74,20.43,10.21
		c1.41,6.55,4.48,13.13,4.64,19.99c-0.77,5.01-4.14,12.33,0.29,16.11c5.29,4.4-2.69,16.16-5.32,5.44c-3.53-4.6-10.1-8.6-9.69-15.04
		c0.06-1.26,0.62-6.52-1.53-4.24c-5.34,16.59,14.67,30.2,15.14,47.02C315.4,630.81,315.12,673.43,309.71,666.06z M300.03,537.71
		c28.23,3.98,19.38,68.02,17.49,34.42C317.79,558.37,304.28,544.86,300.03,537.71z M346.4,729.16c-8.3-0.96-10.95-19.36-16.27-27.25
		c-12.41-5,9.3,23.13,8.64,27.98c-8.53,8.18-74.79,63.51-45.89,26.99c13.92-13.71,17-33.63,25.06-49.86
		c2.08-0.63,9.27-16.67,3.67-11.73c-1.59,0.64-4.08,6.63-5,3.38c1.85-9.34-4.79-21.51-1.2-29.28c8.55-18.21,4.02-40.31-3.22-58.53
		c22.91-23.54,8.42,112.24,18.1,52.61c2.36-22.99-0.81-48.47-11.64-68.71c13.74-20,5.88-51.34-15.89-61.26
		c13.51-9.79,23.62-31.92,12.27-47.32c-1.86-4.08,9.14-16.27,10.12-13.77c-0.17,41.68,1.57,83.21,7.08,123.75
		c4.85,37.29,19.44,42.98,1.48,79.63c15.53-13.32,7.08-35.08,22.61,0.8c20.81,31.02,11.79,27.93-1.55,56.07
		c1.9,10.45,16.95,3.28,15.5-3.04c-4.15,1.33,6.51-16.96,8.37-16.5c2.96,4.93,16.31,15.03,13.62,19.1
		c-6.24,3.34-15.3,10.94-15.75,18.42c-0.59,18.01,35.03-0.1,24.92,12.34c-2.71,6.11-8.31,11.02-8.4,17.86
		C378.81,782,324.07,744.82,346.4,729.16z M491.64,805.28c-29.61-0.99-77.08-3.69-96.46-23.43c17.4-29.56,12.28-16.15,8.59-42.39
		c3.96,3.15,4.87,8.03,6.49,12.31c11.86-3.31,28.09,20.18,42.95,25.29C461.31,785.97,500.33,794.46,491.64,805.28z M501.12,795.52
		c4.9-0.53-1.6,4.12-1.32,6.37C494.28,806.08,495.06,795.39,501.12,795.52z M593.91,776.84c-25.81,13.62-52.87,22.37-80.74,27.43
		c-39.94,3.27,49.49-43.07,55.48-52.63c8.3-11.07,12.55,3.79,17.9,10.94C587.4,767.2,600.04,773.45,593.91,776.84z M625.99,750.82
		c0.6-4.06,11.04-14.22,12.25-9.53C635.55,744.28,628.87,752.45,625.99,750.82z M617.78,762.25c-5.38,1.93-14.42,12.18-19.35,9.18
		c-2.67-11.47-9.64-7.06-8.75-12.45c4.77-4.69,12.59-4.81,18.25-8.3c7.45-4.82,29.8-31.22,33.54-18.19
		C628.01,735.16,614.75,748.38,617.78,762.25z M658.68,724.8c-2.1,8.85-8.42-2.72-9.26,3.05c-4.73,2.7-4.64-5.12-9.4-3.85
		c-5.18-3.26-7.24-14.33-11.19-20.54c-7.1-10.13,5.96-20.72,8.81-29.98c6.28-14.67,9.36-17.81,8.81,0.73
		C644.55,692.65,665.33,707.27,658.68,724.8z M661.89,661.43c0.59,7.84,4.86,14.19,0.43,21.6c-2.36,35.63-6.78,7.12-10.9-8.63
		c0.53-19.73-2.34-40.89,6.84-59.3c1.87-3.46,8.02-18.8,8.64-7.37C663.76,625.06,659.73,643.66,661.89,661.43z M676.08,635.41
		c2.64,5.98,1.88,9.07-2.92,13.63c-10.29,18.46-4.8-14.88-3.79-22.85c0.08-9.62,4.32-14.47,9.21-20.8c1.47-8.44-1.4-18.9,1.42-26.44
		C706.94,618.87,669.51,604.4,676.08,635.41z M686.8,645.93c-4.29-7.19-8.38-17.77-5.47-25.59c7.07,4.59,4.15-2.41,8.93-6
		c2.74,1.72,0.66,5.12,2.73,7.37c4.89,3.29,9.64,6.51,15.5,7.01c0.05,7.94-17.18,6.46-16.37,12.83
		C707.8,644.59,688.4,655.17,686.8,645.93z M717.62,594.69c-10.95,8.15-21.56,41.39-23.51,12.77
		C692.38,594.5,749.99,565.4,717.62,594.69z M720.21,609.7c-2.85,5.52-8.09,9.86-10.42,15.27c-2.99-0.55-9.79-0.72-10.22-4.09
		C705.43,618.06,714.05,597.35,720.21,609.7z M745.5,664.13c-1.38,2.23,4.31,4.49,4.96,1.16c14.25-7.77-1.51,8.99-6.32,11.68
		c-15.78,38.57-38.25,9.24-58.11,35.17c-2.39-11.32-4.32-45.49,13.58-35.32c-26.41,7.91,9.55,30.67,22.47,15.06
		c3.38-2.3,0.92,2.37,2.75,3.03c5.13-3.83,10.6-9.76,15.26-15.4C743.11,676.67,741.5,657.95,745.5,664.13z M728.47,686.19
		c-0.09-1.12,2.21-2.81,2.62-1.12C731.47,685.73,728.85,688.01,728.47,686.19z M734.44,682.16c-5.34-8.53,0.58-24.9-15.03-28.03
		c-18.03,6.3,32.48,19.63-10.32,37.01c-4.97,1.02-16.77-2.33-13.3-8.49c9.8,4.51,23.45-13.4,13.95-17.91
		c-6.98,12.81-25.22,2.92-15.55-10.05c8.8-12.7,33.69-9.21,39.6,4.96C738.75,665.25,738.05,676.62,734.44,682.16z M741.88,579.15
		c-11.43,13.72,1.39,11.29-0.29,19.16c-6.78,2.45-12.94,6.81-14.58,14.29c-10.86,25.55,35.8,14.35,8.1,33.78
		c-33.96-11.16-36.34,7.04-13.96-28.59c6.95-7.78,2.11-11.97,0.27-18.1C724.99,593.84,743.85,568.25,741.88,579.15z M752.34,558.46
		c-11.31,13.47-26.81,19.7-42.18,27.22c-12.53,9.33-21.37,6.81-24.33-9.51c-3.95-13.06,24.91-36.61,11.25-11.16
		c5.09,27.24,48.09-19.8,43.59-29.3c-5.17,6.84-29.48,43.47-31.88,22.65c5.32-13.43,28.06-15.46,29.09-31.16
		c-6.78-5.11-2.52-3.92,1.19-8.63c1.61-10.92,15.14-4.27,13.55,3.69c-1.63,7.09-1.72,13.99-5.82,20.49
		c-0.01,3.04-7.94,6.29-3.49,8.57C746.32,553.18,756.08,553.82,752.34,558.46z M742.05,492.76c-0.76,7.39-5.16,18.73-9.94,22.94
		C728.47,510.55,732.66,479.48,742.05,492.76z M740.19,480.48c1.1-13.05,2.49-1.85,4.37,4.28
		C741.74,485.32,739.68,483.57,740.19,480.48z M733.51,526.8c4.04,4.48-20.62,25.8-22.24,16.81
		C715.17,535.9,727.72,534.11,733.51,526.8z M755.49,509.27c-0.04,5.11-6.21-2.09-9.02-1.72c-3.13-2.07,1.51-7.83,1.23-11.23
		C747.12,478.31,748.01,504.62,755.49,509.27z M745.98,473.82c1.93-8.45,9.4-6.7,9.51,1.49
		C755.28,491.96,748.79,485.16,745.98,473.82z M781.58,488.95c19.7,18.46,4.16,54.41-23.01,54.44c-18.14,10.32,6.38-10.59,1.82-32.5
		c15.27-1.9,8.62,38.72,17.72,12.55C783.77,512.75,778.87,498.58,781.58,488.95z M750.79,451.71c21.35,7.29,25.48,30.87,26.73,50.7
		c-0.98,12.49,1.91,27.39-8.84,8c-23.7-9.03-11.34-17.58-10.12-35.54c-1.58-23.31-26-18.63-23.49,3.13
		c-0.39,9.17-7.62,16.73-7.86,26.29c-0.85,8.14-1.25,17.43-9.74,21.69c-7.97,6.67-22.87,6-25.62-5.82
		c-0.23-3.32,3.18-7.06,0.5-10.24c-12.83-5.45-21.46,0.37-18.38,14.92c-16.59-2.75-5.29-37.67,10.6-37.9
		c8.84-3.23,10.32,3.03,12.81,9c10.46-4.15,15.7,7,7.64,13.98c-2.84,2.67-9.05-0.5-8.15,6.41c18.33,13.21,29.06-22.59,30.15-36.41
		c3.72-10,6.8-18.5,1.3-29.24c3.33-7.39,6.47,4.41,11.51,4.04C743.98,455.69,745.61,449.88,750.79,451.71z M816.07,399.98
		c-3.4-13.17-27.9-10.93-22.61,3.16c7.81-2.27,19.64-12.5,20.49,3.88c-5.79,37.69-73.14,44.45-87.24,13.97
		c-20.5-20.66,19.75,4.73,18.57,11.02c8.92,1.96,28.73-2.94,32.41-7.87c-16.89-4.52,16.33-6.25,20.86-10.05
		c2.69,0.46,10.72-6.93,5.86-6.74c-5.85,2.55-14.21,9.51-20.06,3.47c-13.4-23.43,28.07-40.64,33.91-13.52
		C819.83,399.23,818.14,402.09,816.07,399.98z M818.73,402.34c0.26-1.55,3.27-2.71,2.73-0.29
		C821.09,410.27,816.63,411.08,818.73,402.34z"/>
	<path d="M768.47,554.11L768.47,554.11c0.09,0.04,0.1,0.03,0.07-0.06c0,0-0.04,0.04-0.06,0.05c0.02-0.01,0.06-0.05,0.06-0.05
		C768.44,554.05,768.35,554.02,768.47,554.11z"/>
	<path d="M796.53,567.22c-18.31,11.44-0.99-20.13-24.87-10.24c-3.41-3.45-2.21-2.83-3.52,1.39c-36.65,32.64,20.52,71.13,34.04,27.99
		C805.32,577.22,791.31,575.56,796.53,567.22z M776.28,564.56c2.34-16.35,8.61,3.6,6.08,10.42
		C774.64,584.04,774.34,570.51,776.28,564.56z M795.91,593.23c-0.38,2.92-6.68,6.98-5.46,1.78c2.46-3.07,2.06-7.11-1.06-9.76
		c-14.84,29.76-38.07-1.16-18.17-22.41c5.34-6.64-4.52,27.49,8.16,17.44C788.87,568.45,803.42,580.94,795.91,593.23z"/>
	<path d="M597.3,803.14c11.35,0.53,12.02,6.67,18.48,15.36c17,17.17-5.46,30.17,14.49,17.98c13.23-4.97,5.47-4.73-2.11-6.64
		c-4.41-6.58-7.94-13.17-13.26-19.14c-6.66-13.66,54.02,31.24,32.7,5.79c-5.78-11.45-17.54-22.3-16.44-34.89
		c-3.99,1.05-9.66,4.37-13.27,6.79c1.01,4.71,7.13-1.88,9.02,3.57c1.95,6.46,11.89,13.28,11,19.24
		C625.62,808.61,606.21,787.86,597.3,803.14z"/>
	<path d="M496.43,825.02c-2.83-0.61-1.93,3.65,0.3,3.95c3.33,2.47,3.05,15.22,0.47,17.75c-11.6,1.22-16.17-0.14-14.27-12.67
		c-0.56-4.97,7.55-4.14,6.77-8.36c-13.7,1.54-20.6-5.55-11.7,7.73c-1.98,12.38,4.86,30.24-4.72,37.87
		c3.25,1.86,9.75-0.84,14.06,0.89c4.33-3.36-5.36-1.94-4.34-5.35c-1.04-12.76-0.99-20.03,13.89-17.21
		c3.33,1.85,2.96,15.55-0.22,18.41c-3.18-0.53-6.01,4.63-1.74,3.88c2.96-2.53,17.68,2.58,14.58-2.96
		c-8.51-5.22-2.62-29.28-3.64-38.69C518.83,822.31,501.38,826.92,496.43,825.02z"/>
	<path d="M573.53,820.46c-6.83-9.82-18.09,0.72-26.76,1.6c-3.22,3.65,5.04,2.23,6.05,4.68c1.92,4.29,2.83,9.51,4.25,13.79
		c1.75,6.14,6.82,14.76,5.64,20.45c-11.12,8.84,0.74,3.6,5.93,2.38c15.95-3.94-4.57,0.66-4.48-19.68
		c8.15-5.93,14.22,22.31,26.16,12.05c7.5-1.9,2.37-6.03-2.47-3.28c-5.55-3.91-10.47-8.33-15.71-13.01
		C578.67,834.72,579.56,825.69,573.53,820.46z M570.52,833.36c-5.92,13.04-10.99,1.17-13.53-6.8
		C556.34,815.85,573.26,825.05,570.52,833.36z"/>
	<path d="M526.68,828.93c3.9,0.04,11.62-4.35,13.28,0.84c5.37,11.55,5.17,1.27,2.11-4.66c-5.79-5.84-17.56,2.14-25.71-0.1
		c-6.49,3.7,5.89,2.87,4.02,7.54c0.05,3.4,1.17,6.71,1.17,10.07c0.25,8.01,5.87,19.69,1.63,25.85c-1.43,0.3-5.86,2.75-2.76,3.77
		c9.71-3.46,30.6,2.76,27.86-10.33c2.03-10.66-3.81-3.33-4.56,2.14c-3.79,0.85-8.4,2.02-12.53,2.28c-4-2.31-1.38-12.32-2.8-17.17
		c2.89-0.49,7.05-2.8,9.76-1.93c0.59,2.37,4.18,10.88,4.71,4.09c-1.73-3.05-2.09-20.93-4.77-9.91c-1.58,2.86-7.77,3.48-10.69,3.93
		C526.7,841.5,522.5,830.55,526.68,828.93z"/>
	<path d="M331.12,825.65c7.44-3.3,14.5,15.98,24.62,0.01c11.15-9.54-13-26.07,1.11-33.63c12.88-2.13,4.32,14.21,8.48,16.17
		c1.29-2.55,11.04-13.13,7.28-13.21c-4.79,3.88-14.63-21.65-27.1,2.76c-3.18,9.34,12.72,20.5,4.75,28.16
		c-5.58,4.47-9.91-0.06-11.87-5.6c-1.23-2.56,7.38-10.67,1.81-9.67C338.84,814.35,324.63,825.53,331.12,825.65z"/>
	<path d="M390.01,808.27c2.66,1.19,6.87-2.06,2.61-2.93c-4.14,1.06-16.52-10.65-15.44-3.84c7.09,2.54-11.29,39.95-17.21,34.63
		c-13.26-0.57,21.31,13.74,25.26,15.18c2.72-3.77,8.87-7.84,8.9-12.26c-9.77,4.01-9.22,10.68-20.78,2.68
		C373.32,833.78,382.46,813.4,390.01,808.27z"/>
	<path d="M468.57,825.08c-6.49-1.68-13.69-1.78-20.13-3.28c-7.03-4.32-7.82,3.05-10.95,8.06c-2.95,6.69,3.91,2.16,4.31-1.54
		c0.63-3.93,10.74-3.15,8.34,1.38c-5.21,10.11,1.58,34.85-12.53,34.72c-2.39,0.27-2.49,3.79,0.1,2.99
		c3.66-1.88,23.61,5.01,18.39-1.14c-10.21-4.57,0.19-19.27-0.75-27.6c1.34-3.15-0.62-12.51,4.96-10.51c4.32,0.64,6.48,2.1,5.88,6.9
		C470.66,841.49,469.66,827.08,468.57,825.08z"/>
	<path d="M435.5,823.05c1.3,0.37,1.54-2.31,0.9-2.63c-24.18-7.51-3.21-3.18-19.44,10.16c-5.24,10.06-5.53-8.95-6.42-12.42
		c1.52-2.59,6.13,0.63,7.25-2.22c-4.72-3.2-12.5-4.35-18.13-7.47c-2.18,3.87,5.7,5.68,5.44,9.53c0.61,6.79,2.23,13.32,4.03,19.54
		c-4.57,24.29-9,10.72-12.54,18.91c30.29,7.4,10.96,6.72,13.87-6.77C413.52,838.8,423.62,824.01,435.5,823.05z"/>
	<path d="M592.7,808.3c10.96-9.3-19.14,3.02-15.23,5.67c9.92-5.32,23.67,26.71,22.58,34.47c-4.67,5.76,1.18,4.29,4.69,1.28
		c1.85-1.3,13.36-4.26,7.41-5.94C605.44,847.06,586.87,812.22,592.7,808.3z"/>
	<path d="M302.23,718.57c-11.52,22.35-27.88,48.92-55.95,50.27c-14.09,3.16-28.94-4.4-42-5.16c12.53,11.05,45.63,10.17,63.56,1.73
		C283.17,754.69,299.58,737.08,302.23,718.57z"/>
	<path d="M355.82,776.83c-18.82-8.79-17.78-34.47-29.81-14.58c-7,15.3-43.01,15.7-32.9,36.45c2.79-1.42-1.62-12.77,7.84-15.54
		c14.14-4.05,23.9-18.9,34.11-24.26C337.56,772,378.75,792,355.82,776.83z"/>
	<path d="M678.7,360.75c21.49-7.12,25.23-41.72,17.09-59.61C697.75,322.25,697.3,345.03,678.7,360.75z"/>
	<path d="M536.67,123.53c1.58-14.21-44.9-17.47-39.93-4.46C508.2,109.69,526.43,113.89,536.67,123.53z"/>
	<path d="M470.69,180.63c7.46-3.73,15.67-1.77,23.39-4.85c6.32-7.57-7.54-0.13-10.74-0.92c-4.3,0.13-0.36-7.83-5.66-4.82
		C477.43,173.98,463.33,180.43,470.69,180.63z"/>
	<path d="M178.5,408.86c1.76,7.25,27.98,21.91,20.11,14.47c-10.07-4.59-17.64-14.28-20.12-25.12
		C172.82,395.84,175.59,406.2,178.5,408.86z"/>
	<path d="M659.01,759.78c-19.51-21.3-13-3.69,1.94,3.84C686.08,783.98,674.28,767.9,659.01,759.78z"/>
	<path d="M220.18,776.8c-5.91-1.23-11.11-3.26-16.98-5.6C203.2,781.94,234,781.46,220.18,776.8z"/>
	<path d="M744.19,699.13c6.69-2.14,8.35-11.16,12.49-16.08c2.04-2.89,11.68-5.6,9.95-8.34C756.7,678.23,745.88,691.99,744.19,699.13
		z"/>
	<path d="M398.67,798.99c-5.73-4.62-19.48-8.64-27.98-13.07c0.31,3.46,8.92,5.55,12.39,7.37
		C388.06,796.44,392.04,801.71,398.67,798.99z"/>
	<path d="M505.65,161.68c-3.18-0.92-4.15-0.3-4.57-4.32c-4.64,5.21-11.99,4.11-16.35,9.27c4.58,1.34,7.59-3.47,12.26-3.52
		C499.26,164.99,509.14,166.71,505.65,161.68z"/>
	<path d="M239.25,691.95c-8.53-1.56-8.93-13.38-14.62-16.56c0.73,3.06,2.28,6.82,3.47,10.07
		C227.93,690.54,244.91,697.66,239.25,691.95z"/>
	<path d="M184.95,666.13c-0.32,13.08,2.09,26.64,9.86,37.44C191.66,691.55,185.83,679.02,184.95,666.13z"/>
	<path d="M369.44,854.09c-4.12-0.94-23.7-17.85-22.36-11.35C353.39,846.47,364.56,855.54,369.44,854.09z"/>
	<path d="M639.73,786.68c-5.62-3.47,7.91,16.33,9.29,20.07C648.89,799.51,645.15,791.42,639.73,786.68z"/>
	<path d="M492.3,185.46c6.74,1.83,18.43-3.96,4.49-3.62C492.26,179.76,483.86,186.21,492.3,185.46z"/>
	<path d="M624.85,769.87c13.03-9.09-9.78,0.99-6.49,4.72c1.87,0.66,6.99,6.62,7.3,2.24C624.14,774.39,620.06,771.86,624.85,769.87z"
		/>
	<path d="M793.57,655.93c-5.53,8.74-0.4,20.51-1.02,30.4C793.69,676.41,793.07,665.6,793.57,655.93z"/>
	<path d="M476.47,189.07c3.17-1.74,6.39-1.65,8.56-5.05C480.13,181.88,470.16,188.56,476.47,189.07z"/>
	<path d="M458.85,212.57c-2.28-2.62-7.03,5.57-10.07,7.1C452.44,220.04,458.58,216.89,458.85,212.57z"/>
	<path d="M684.61,741.74c-1.85-2.5-2.73-7.42-5.31-8.59C677.84,736.42,685.13,749.92,684.61,741.74z"/>
	<path d="M782.09,777.39c5.19-3.64,7.69-7.49,6.72-10.14C785.37,769.7,783.16,772.9,782.09,777.39z"/>
	<path d="M386.35,248.24c2.65,1.8,0.79-7.04-0.9-7.3C381.02,241.37,384.12,246.72,386.35,248.24z"/>
	<path d="M377.38,855.77c-4.08,1.83,3.97,4.48,5.85,5.07C383.52,857.77,380.37,855.2,377.38,855.77z"/>
	<path d="M212.91,736.09c3.32-7.21-4.74,6.16-10.38-1.41C201.72,739.38,211.07,739.52,212.91,736.09z"/>
	<path d="M658.38,820.25c2.2-1.17-2.29-5.51-3.98-6.11C652.06,814.38,656.47,820.93,658.38,820.25z"/>
	<path d="M501.7,888.54c-6.14,0-12.28,0-18.42,0C488.92,888.8,496.02,888.8,501.7,888.54z"/>
	<path d="M198.55,730.43c2.46,0.45,1.54-2.44,0.04-2.9C195.54,726.62,196.11,730.74,198.55,730.43z"/>
	<path d="M272.11,266.57c0,0.02,0,0.05-0.01,0.07C272.16,266.64,272.16,266.58,272.11,266.57z"/>
	<path d="M271.77,264.64c-0.85-1.14-1.61-2.35-2.02-3.95C267.24,263.1,273.19,268.99,271.77,264.64z"/>
	<path d="M466.39,887.67c4.53,0.33,9.09-0.2,13.61,0.36C480.7,886.97,470.52,887.85,466.39,887.67z"/>
	<path d="M466.39,887.67c-0.25-0.02-0.5-0.03-0.75-0.05C465.86,887.64,466.11,887.65,466.39,887.67z"/>
	<path d="M514.99,145.55c-3.95,1.73-5.11,2.77-5.19,4.89C511.1,148.24,513.72,148.01,514.99,145.55z"/>
	<path d="M501.54,171.7c2.69-2.86-8.09-2.06-1.76,0.03C500.24,172.14,500.97,172.11,501.54,171.7z"/>
	<path d="M303.59,685.09c-0.98-3.85-2.93,2.14-1.27,3.69C302.46,687.42,303.79,686.51,303.59,685.09z"/>
	<path d="M687.38,787.97c0.47-1.06,0.51-2.13-0.15-3.68C686.74,785.54,685.73,789.28,687.38,787.97z"/>
	<path d="M504.29,887.76c1.92,0.45,3.9-0.15,5.86,0.05C508.19,887.71,506.23,887.17,504.29,887.76z"/>
	<path d="M651.95,811.85c0.53-1.38-0.39-1.69-1.27-2.38C650.49,810.81,651.05,811.35,651.95,811.85z"/>
	<path d="M756.5,788.14c1,0.2,1.94,0.06,2.82-0.4C758.37,787.83,757.37,787.5,756.5,788.14z"/>
	<path d="M759.32,787.74c0.09-0.01,0.18-0.02,0.26-0.03C759.52,787.59,759.42,787.71,759.32,787.74z"/>
	<path d="M759.58,787.7c0.07-0.11,0.05-0.11-0.06-0.06C759.52,787.64,759.58,787.7,759.58,787.7z"/>
	<path d="M759.64,787.6c0.65-0.23,1.42-0.12,2.03-0.68C760.7,786.52,760.05,786.77,759.64,787.6z"/>
	<path d="M779.42,715.91c-0.16,0.77,0.99,0.89,0.99,0.12C780.61,715.1,779.38,714.95,779.42,715.91z"/>
	<path d="M776.95,781.12c0.24,0.21,0.39,0.22,0.56-0.08C777.26,780.81,777.12,780.81,776.95,781.12z"/>
	<path d="M434.84,399.25c1.21-0.27-0.81-1.11-0.56-0.21C434.35,399.18,434.64,399.24,434.84,399.25z"/>
	<path d="M412.99,621.43c-6.99,21.94-5.87,79.52,27.13,66.81c-47.52-8.5-23.83-77.48-3.74-104.22
		c21.84-35.45,75.2-80.93,64.01-118.43C494.88,525.77,432.5,563.91,412.99,621.43z"/>
	<path d="M462.21,388.84c-1.91,44.07,2.93,19.88,6.25-2.11c3.73,0.22,7.15-4.24,10.38-0.77c4.07,3.19,8.63-6.63,3.69-8.04
		c-5.5-1.94-9.72,3.91-14.16,4.69c-2.56-2.85,8.73-20.62-2.25-15.47c-3.81,8.61,0.88,25.01-10.39,10.78
		c-5.55-2.57-11.13,6.44-3,6.85C455.79,385.81,462.79,384.23,462.21,388.84z"/>
	<path d="M533.17,717.79c-6.18-2.37,2.71-7.07,4.99-8.9c19.45-10.87,46.12-39.02,39.8-61.51c-7.17,44.61-38.68,49.4-53.79,70.27
		C526.98,719.55,540.25,724.71,533.17,717.79z"/>
	<path d="M429.23,444.91c-4.08,5.31-21.76-3.49-18.64,2.87c1.37,4.9,16.91-1.06,10.74,4.85c-3.05-0.62-4.97,3.36-1.2,4.03
		c9.44-7.84,34.74,2.24,34.23-14.51C447.98,431.21,437.51,443.44,429.23,444.91z M444.71,448.65c-2.29,1.66-5.1,0.77-7.7,1.03
		C428.84,446.65,451.59,439.03,444.71,448.65z"/>
	<path d="M434.38,460.04c-8.73,2.75-23.26,2.99-30.51-3.4c-2.44-1.94-5.29,5.46-7.87,6.77c0.92,4.71-6.9,6.61-2.12,8
		c7.16-2.76,5.46,8.26,11.64,5.48c1.76-4.46-7.36-6.4-6.31-10.91c0.02-9.5,6.9-2.44,11.88-1.81
		C420.26,469.48,455.79,456.13,434.38,460.04z"/>
	<path d="M399.13,671.15c5.01,10.06,22.23,59.39,14.28,20.7C405.48,681.75,393.46,639.88,399.13,671.15z"/>
	<path d="M474.08,403.84c6.97-5.05,59.92-43.91,32.59-28.61C500.73,380.5,463.58,404.03,474.08,403.84z"/>
	<path d="M436.83,704.67c-2.46-4.93-15.68,1.99-10.44,3.81c13.49-4.85,15.69,14.79,28.41,16.6
		C472.04,728.21,439.17,713.57,436.83,704.67z"/>
	<path d="M467.99,432.98c-4.07-1.06-11.12-1.88-13.73,1.97c9.63,3.35,22.8,0.45,29.17,11.73
		C489.16,442.45,474.02,432.41,467.99,432.98z"/>
	<path d="M510.15,347.91c-7.77,3.54-36.75,11.05-33.59,18.99C485.88,359.54,503.74,357.72,510.15,347.91z"/>
	<path d="M501.82,453.94c-1.28,1.04-5.49,3.81-3.18,5.45C501.59,460.74,506.16,452.73,501.82,453.94z"/>
	<path d="M543.86,632.87c-16.69,4.41-34.59,9.69-49.4-2.71c-7.07,9.97,20.98,13.14,29.28,11.33
		C529.95,641.48,557.69,628.57,543.86,632.87z"/>
	<path d="M572.99,539.91c6.84,15.05,8.43,69.91,10,27.47C584.89,558.73,568.49,523.61,572.99,539.91z"/>
	<path d="M499.46,583.94c-15.83,4.78-18.62,38.57,0.35,40.98C484.68,615.15,490.11,595.47,499.46,583.94z"/>
	<path d="M560.73,519.38c1.59-3.66-7.95-9.7-9.8-14.37C540.46,483.64,549.4,515.48,560.73,519.38z"/>
	<path d="M468.48,615.99c-4.51,7.71,13.88,28.29,8.2,15.23C471.55,627.3,471.63,620.98,468.48,615.99z"/>
	<path d="M561.59,519.51c-0.07,0.7,0.21,1.2,0.8,1.65C562.96,520.02,562.14,519.84,561.59,519.51z"/>
	<path d="M561.59,519.43c0,0,0.01-0.01,0.01-0.01c-0.02,0.01-0.04,0.02-0.06,0.03c0,0.03,0.01,0.03,0.02,0.01
		c-0.01,0.01-0.01,0.02-0.01,0.02C561.6,519.53,561.59,519.48,561.59,519.43C561.6,519.43,561.59,519.43,561.59,519.43z"/>
	<path d="M326.79,340.53c-5.62,0.75-9.2-17.53-11.92-10.27C313.69,335.81,329.69,348.94,326.79,340.53z"/>
	<path d="M310.11,322.74c-2.32,0.45-4.75,6-7.12,1.3c-3.4-7.34-2.09,5.89,3.52,4.2C309.29,328.74,310.83,324.87,310.11,322.74z"/>
	<path d="M563.87,325.39c6.07,8.34,20.75,19.96,7.11,4.03C568.74,327.31,561.17,317.16,563.87,325.39z"/>
	<path d="M642.19,336.86c8.71-0.91-0.31-7.25-3.99-7.39C634.97,332.05,638.81,336.81,642.19,336.86z"/>
	<path d="M585.29,338.26c-2.48,3.9,6,11.39,3.04,3.5C588.67,339.73,586.85,335.21,585.29,338.26z"/>
	<path d="M648.22,359.91c-4.58-0.24-5.49,3.61-0.37,1.49C650.76,361.18,652.57,357.92,648.22,359.91z"/>
	<path d="M769.48,340.5c27.81,18.64-5.58-13.3-19.71-4.87C741.05,340.88,765.92,334.58,769.48,340.5z"/>
	<path d="M700.21,381.03c5.26-10.2-10.1,6.32-2.97,10.97C700.63,389.93,696.3,382.96,700.21,381.03z"/>
	<path d="M756.08,418.91c1.4-2.92-4.94-12.86-3.18-4.29C752.48,416.64,754.3,418.78,756.08,418.91z"/>
	<path d="M734.19,360.33c-1.95-0.25-5.57-0.94-5.75,1.86C729.24,364.31,736.8,362.07,734.19,360.33z"/>
	<path d="M735.63,359.5c0.08,1.56,3.07-0.51,3.35-1.16C739.36,354.83,735.62,357.47,735.63,359.5z"/>
	<path d="M229.2,456.79c-3.09-2.62-5.06,7.96-4.3,10.92C229.32,470.99,227.1,459.23,229.2,456.79z"/>
	<path d="M288.88,502.23c2.41,2.36,6.13-2.33,8.81-2.83C300.44,496.72,286.78,498.39,288.88,502.23z"/>
	<path d="M307.54,495.69c2.69-1.48-0.96-3.76-2.61-2.21C300.32,496.26,304.45,498.51,307.54,495.69z"/>
	<path d="M228.54,485.38c-2.25-0.68-4.56,3.25-5.33,5.3C225.59,489.48,227.52,487.88,228.54,485.38z"/>
	<path d="M700.49,505.95c-3.18-4.32-13.8-5.48-19.19-8.04c-3.28-0.78-10.84,6.58-6.88,8.07
		C681.92,496.71,692.85,507.45,700.49,505.95z"/>
	<path d="M767.91,475.9c0.83,9.17-3.61,17.08-7.21,23.99C768.03,496.65,773.34,482.34,767.91,475.9z"/>
	<path d="M239.95,343.35c2.21-2.46-4.25-1.17-5.8-0.64C236.6,344.38,238.36,344.51,239.95,343.35z"/>
	<path d="M287.2,623.64c-4.79-2.48-0.6,8.4,2.23,7.2C290.31,629.06,289.33,624.76,287.2,623.64z"/>
	<path d="M305.6,578.24c2.85-5.45-0.67-4.8-3.58-1.12C300.81,579.03,304.77,580.12,305.6,578.24z"/>
	<path d="M711.63,576.96c-4.63,3.28-15.65,0.25-14.68,8.95C701.03,583.51,724.5,574.12,711.63,576.96z"/>
	<path d="M717.02,575.87l-0.06-0.06C716.9,575.88,716.96,575.86,717.02,575.87z"/>
	<path d="M732.8,567.02c-4.49-0.7-18.64,9.99-9.73,6.57C724.83,571.33,736.69,569.42,732.8,567.02z"/>
	<path d="M746.86,522.4c-2.04-5.62-5.44,8.59-4.37,10.47C746.25,531.63,745.57,525.55,746.86,522.4z"/>
	<path d="M717.02,575.87c0.06-0.08,0.02-0.08-0.06-0.06C716.96,575.8,717.02,575.87,717.02,575.87z"/>
	<path d="M717.07,575.79c0.45-0.03,1.6-0.15,0.91-0.75C717.48,574.82,717.27,575.46,717.07,575.79z"/>
	<path d="M788.71,426.77c-14.12,9.72,12.06-1.46,9.68-8.08C795.6,417.46,791.85,425.31,788.71,426.77z"/>
	<path d="M612.74,733.26c0.14-1.5-0.51-1.97-1.29-2.56C610.82,732.1,611.75,732.47,612.74,733.26z"/>
	<path d="M417.6,297.79c5.33-1.86-2.13-4.54-4.54-2.38C413.98,297.45,416.14,296.99,417.6,297.79z"/>
	<path d="M223.74,602.07c-12.04,1.87-16.75,18.42-11.73,28.72c1.51,5.14,16.49,7.57,9.51,0.24
		C201.83,614.98,254.84,604.52,223.74,602.07z"/>
	<path d="M231.7,616.15c-2.53,0.69-8.82,2.71-8.03,5.94C225.09,622.69,234.55,616.03,231.7,616.15z"/>
	<path d="M313.01,462.63c-0.42,3.13-1.99,7.45-1.47,10.33C314.18,471.57,315.49,465.39,313.01,462.63z"/>
	<path d="M649.38,725.76c0,0-0.01,0-0.02,0.02c0.08,0.02,0.1-0.07,0.02-0.07C649.36,725.77,649.37,725.77,649.38,725.76z"/>
	<path d="M648.5,724.1c-0.53-0.31-0.91-0.99-1.56-0.94C641.99,725.38,652.46,727.16,648.5,724.1z"/>
	<path d="M717.8,670.36c-1.53,2.7-1.09,6.03-3.14,8.47C717.89,676.12,719.03,672.89,717.8,670.36z"/>
	<path d="M705.14,662.57c-1.4,2.27,3.2,0.31,3.39-1.1C707.2,661.18,706.28,662.21,705.14,662.57z"/>
	<path d="M708.56,661.42c-0.05,0.07,0.01,0.05,0.06,0.06C708.62,661.43,708.61,661.4,708.56,661.42z"/>
	<path d="M709.47,660.67c-0.6-0.1-1.06-0.01-0.87,0.74C709.13,661.5,710.5,661.18,709.47,660.67z"/>
	<path d="M380.24,374.88c-0.76,0.11-1.62-0.15-2.3,0.51C379.16,376.51,379.18,376.52,380.24,374.88z"/>
	<path d="M380.24,374.88c0.04-0.01,0.07-0.01,0.11-0.01C380.3,374.8,380.28,374.8,380.24,374.88z"/>
	<path d="M381.98,374.44c-0.84-0.69-1.22-0.18-1.58,0.37C380.92,374.81,381.49,374.94,381.98,374.44z"/>
	<path d="M380.29,374.81c0,0,0.06,0.06,0.06,0.06C380.42,374.8,380.36,374.8,380.29,374.81z"/>
	<path d="M720.86,278.5c3.07,1.44,6.74-6.92,2.65-5.92C723.18,274.3,718.3,277.54,720.86,278.5z"/>
	<path d="M258.38,633.13c0,0,0.03-0.03,0.04-0.04C258.4,633.1,258.37,633.13,258.38,633.13c0.05,0.01,0.07-0.01,0.06-0.06l0,0l0,0v0
		v0C258.36,633.02,258.36,633.06,258.38,633.13z"/>
	<path d="M468.67,282.06c2.62-0.21,1.83-3.08,1.94-4.88C469.45,269.5,464.26,280.33,468.67,282.06z"/>
	<path d="M751.92,368.91c-0.1,4.21-10.06,3.24-6.98,6.12C759.02,380.56,758.04,347.82,751.92,368.91z"/>
	<path d="M607.46,757.78c2.59-0.51,3.18-0.97,3.25-2.82C609.85,756.34,608.29,756.34,607.46,757.78z"/>
	<path d="M530.38,274.78c1.56-2.36,10.1,1.64,6.78-3.71C525.66,247.62,523.71,277.58,530.38,274.78z"/>
	<path d="M694.69,632.5c3.24,0.66,0.66-4.9-1.53-4.68C690.15,628.08,693.39,631.77,694.69,632.5z"/>
	<path d="M421.7,265.51c-1.92,1.11-5.77,3.04-4.36,4.7C418.98,269.05,420.56,267.83,421.7,265.51z"/>
	<path d="M667.59,584.45c0.58-0.59,1.36-1.08,0.5-2.02C666.85,581.3,666.33,583.95,667.59,584.45z"/>
	<path d="M470.31,234.43c-0.83,4.29-6.93,12.58-4.84,15.19C467.03,246.16,472.88,236.3,470.31,234.43z"/>
</g>
</svg>
